# Blender v2.82 (sub 7) OBJ File: ''
# www.blender.org

scopTexture ./textures/default.ppm

v 0.232406 -0.745504 1.477731
v 0.232406 -0.745504 2.843098
v -0.227475 -0.745504 2.843098
v -0.227475 -0.745504 1.477731
v 0.232407 1.119982 1.133819
v -0.227475 1.119982 1.133818
v -0.227475 1.119982 1.602813
v 0.232406 1.119982 1.602814
v -0.227403 1.104268 0.408501
v -0.227403 0.507336 0.901477
v -0.227403 1.119377 0.901477
v 0.232406 -0.340316 2.843098
v -0.227475 -0.340316 2.843098
v -0.227475 -0.294496 2.297937
v -0.227475 -0.305193 1.133818
v 0.232407 -0.305193 1.133819
v 0.232406 -1.216630 1.133818
v -0.227475 -1.216630 1.133818
v 0.232407 -0.294496 2.297937
v 0.232406 -1.222569 1.497195
v -0.227475 -1.222569 1.497194
v -0.227403 -0.075523 -0.037620
v 0.223704 -0.075523 -0.037620
v 0.223704 -0.731178 -0.037620
v -0.227403 -0.731178 -0.037620
v 0.223704 0.551492 0.384487
v 0.223704 0.634134 -0.037620
v 0.223704 1.119377 -0.037620
v 0.223704 1.104269 0.408501
v 0.223704 -0.129772 0.901477
v -0.227403 -0.129772 0.901477
v -0.227403 -0.731178 0.901477
v 0.223704 -0.731178 0.901477
v 0.223704 1.119377 0.901477
v -0.227403 1.119377 -0.037620
v 0.223704 0.507336 0.901477
v -0.227403 0.551492 0.384487
v -0.227403 0.634134 -0.037620
v 0.223704 -0.066768 0.398575
v -0.227403 -0.066768 0.398575
v 0.223704 -0.684649 0.389681
v -0.227403 -0.684649 0.389681
vt 0.582797 0.241987
vt 0.114805 0.000000
vt 0.037179 0.101800
vt 0.493831 0.323814
vt 0.628661 0.801273
vt 0.524165 0.869209
vt 0.356248 0.809270
vt 0.456629 0.735342
vt 0.759707 0.948395
vt 0.623694 0.717425
vt 0.602596 0.896994
vt 0.078974 0.098152
vt 0.000000 0.199316
vt 0.199443 0.304239
vt 0.580207 0.475972
vt 0.673986 0.399671
vt 0.697447 0.191794
vt 0.609476 0.270592
vt 0.284553 0.212242
vt 0.593288 0.133672
vt 0.507203 0.216719
vt 0.900434 0.678594
vt 0.998967 0.616661
vt 0.998483 0.462377
vt 0.904831 0.526808
vt 0.879654 0.729339
vt 0.999555 0.803587
vt 1.000000 0.945346
vt 0.866490 0.889477
vt 0.737693 0.478699
vt 0.643344 0.550187
vt 0.660048 0.408010
vt 0.750329 0.334435
vt 0.706652 0.833063
vt 0.891123 1.000000
vt 0.722763 0.649142
vt 0.777597 0.791937
vt 0.895129 0.861705
vt 0.881512 0.563326
vt 0.784437 0.629312
vt 0.889248 0.416780
vt 0.796607 0.485006
vn 0.0000 -1.0000 -0.0000
vn 0.0000 1.0000 0.0000
vn -1.0000 0.0000 0.0000
vn -0.0000 0.6474 0.7622
vn 0.0000 0.0000 -1.0000
vn 0.0000 -0.0000 1.0000
vn 0.0000 -0.6355 -0.7721
vn 0.0000 1.0000 -0.0092
vn 0.0000 -0.9999 -0.0163
vn -0.0000 0.0408 0.9992
vn 1.0000 0.0000 0.0000
vn 0.0000 -0.6368 -0.7711
vn 0.0000 -0.0434 0.9991
vn 0.0000 0.6045 0.7966
vn 0.0000 -0.5284 -0.8490
vn 0.0000 0.0144 -0.9999
vn 0.0000 0.5743 0.8187
f 1/1/1 2/2/1 3/3/1 4/4/1
f 5/5/2 6/6/2 7/7/2 8/8/2
f 9/9/3 10/10/3 11/11/3
f 12/12/4 8/8/4 7/7/4 13/13/4
f 14/14/3 15/15/3 4/4/3
f 16/16/5 17/17/5 18/18/5 15/15/5
f 2/2/6 12/12/6 13/13/6 3/3/6
f 5/5/7 19/19/7 14/14/7 6/6/7
f 19/19/8 16/16/8 15/15/8 14/14/8
f 17/17/9 20/20/9 21/21/9 18/18/9
f 20/20/10 1/1/10 4/4/10 21/21/10
f 22/22/5 23/23/5 24/24/5 25/25/5
f 26/26/11 27/27/11 28/28/11 29/29/11
f 30/30/6 31/31/6 32/32/6 33/33/6
f 32/32/1 25/25/1 24/24/1 33/33/1
f 34/34/2 28/28/2 35/35/2 11/11/2
f 34/34/6 11/11/6 10/10/6 36/36/6
f 36/36/12 10/10/12 9/9/12 29/29/12
f 29/29/13 9/9/13 37/37/13 26/26/13
f 26/26/14 37/37/14 31/31/14 30/30/14
f 35/35/5 28/28/5 27/27/5 38/38/5
f 38/38/15 27/27/15 39/39/15 40/40/15
f 40/40/16 39/39/16 41/41/16 42/42/16
f 42/42/17 41/41/17 23/23/17 22/22/17
f 34/34/11 36/36/11 29/29/11
f 42/42/3 22/22/3 25/25/3
f 24/24/11 23/23/11 41/41/11
f 19/19/11 5/5/11 8/8/11
f 28/28/11 34/34/11 29/29/11
f 33/33/11 24/24/11 41/41/11
f 6/6/3 14/14/3 7/7/3
f 37/37/3 40/40/3 31/31/3
f 13/13/3 14/14/3 4/4/3 3/3/3
f 26/26/11 39/39/11 27/27/11
f 39/39/11 26/26/11 30/30/11
f 16/16/11 1/1/11 20/20/11 17/17/11
f 14/14/3 13/13/3 7/7/3
f 2/2/11 1/1/11 19/19/11 12/12/11
f 16/16/11 19/19/11 1/1/11
f 39/39/11 30/30/11 33/33/11 41/41/11
f 19/19/11 8/8/11 12/12/11
f 21/21/3 4/4/3 15/15/3 18/18/3
f 40/40/3 37/37/3 38/38/3
f 42/42/3 25/25/3 32/32/3
f 9/9/3 11/11/3 35/35/3
f 32/32/3 31/31/3 40/40/3 42/42/3
f 35/35/3 38/38/3 37/37/3 9/9/3
